<?xml version="1.0" encoding="UTF-8"?>
<svg xmlns="http://www.w3.org/2000/svg" xmlns:xlink="http://www.w3.org/1999/xlink" width="900" height="700" viewBox="0 0 900 700"><defs id="defs-6fe27c"><g class="clips"><clipPath id="clip6fe27cxyplot" class="plotclip"><rect width="658" height="580"></rect></clipPath><clipPath class="axesclip" id="clip6fe27cx"><rect x="40" y="0" width="658" height="700"></rect></clipPath><clipPath class="axesclip" id="clip6fe27cy"><rect x="0" y="80" width="900" height="580"></rect></clipPath><clipPath class="axesclip" id="clip6fe27cxy"><rect x="40" y="80" width="658" height="580"></rect></clipPath></g><g class="gradients"></g><g class="patterns"></g></defs><g class="bglayer"></g><g class="draglayer cursor-crosshair"><g class="xy"><rect class="nsewdrag drag" data-subplot="xy" x="40" y="80" width="658" height="580" style="fill: transparent; stroke-width: 0; pointer-events: all;"></rect><rect class="nwdrag drag cursor-nw-resize" data-subplot="xy" x="20" y="60" width="20" height="20" style="fill: transparent; stroke-width: 0; pointer-events: all;"></rect><rect class="nedrag drag cursor-ne-resize" data-subplot="xy" x="698" y="60" width="20" height="20" style="fill: transparent; stroke-width: 0; pointer-events: all;"></rect><rect class="swdrag drag cursor-sw-resize" data-subplot="xy" x="20" y="660" width="20" height="20" style="fill: transparent; stroke-width: 0; pointer-events: all;"></rect><rect class="sedrag drag cursor-se-resize" data-subplot="xy" x="698" y="660" width="20" height="20" style="fill: transparent; stroke-width: 0; pointer-events: all;"></rect><rect class="ewdrag drag cursor-ew-resize" data-subplot="xy" x="105.8" y="660.5" width="526.4" height="20" style="fill: transparent; stroke-width: 0; pointer-events: all;"></rect><rect class="wdrag drag cursor-w-resize" data-subplot="xy" x="40" y="660.5" width="65.8" height="20" style="fill: transparent; stroke-width: 0; pointer-events: all;"></rect><rect class="edrag drag cursor-e-resize" data-subplot="xy" x="632.2" y="660.5" width="65.8" height="20" style="fill: transparent; stroke-width: 0; pointer-events: all;"></rect><rect class="nsdrag drag cursor-ns-resize" data-subplot="xy" x="19.5" y="138" width="20" height="464" style="fill: transparent; stroke-width: 0; pointer-events: all;"></rect><rect class="sdrag drag cursor-s-resize" data-subplot="xy" x="19.5" y="602" width="20" height="58" style="fill: transparent; stroke-width: 0; pointer-events: all;"></rect><rect class="ndrag drag cursor-n-resize" data-subplot="xy" x="19.5" y="80" width="20" height="58" style="fill: transparent; stroke-width: 0; pointer-events: all;"></rect></g></g><g class="layer-below"><g class="imagelayer"></g><g class="shapelayer"></g></g><g class="cartesianlayer"><g class="subplot xy"><g class="layer-subplot"><g class="shapelayer"></g><g class="imagelayer"></g></g><g class="minor-gridlayer"><g class="x"></g><g class="y"></g></g><g class="gridlayer"><g class="x"></g><g class="y"></g></g><g class="zerolinelayer"></g><g class="layer-between"><g class="shapelayer"></g><g class="imagelayer"></g></g><path class="xlines-below"></path><path class="ylines-below"></path><g class="overlines-below"></g><g class="xaxislayer-below"></g><g class="yaxislayer-below"></g><g class="overaxes-below"></g><g class="overplot"><g class="xy" transform="translate(40,80)" clip-path="url(#clip6fe27cxyplot)"><g class="scatterlayer mlayer"><g class="trace scatter trace76ed8f" style="stroke-miterlimit: 2; opacity: 1;"><g class="fills"></g><g class="errorbars"></g><g class="lines"><path class="js-line" d="M574.76,290L574,270.67L573.67,266.81L571.08,247.64L570.39,243.83L566.01,224.99L564.96,221.27L558.82,202.92L557.42,199.31L549.58,181.63L547.84,178.17L538.37,161.3L536.32,158.02L525.29,142.12L522.94,139.05L510.47,124.26L507.84,121.43L494.02,107.88L491.13,105.31L476.1,93.13L472.99,90.83L456.87,80.12L453.55,78.14L436.5,69L433.01,67.33L415.17,59.84L411.54,58.51L393.08,52.74L389.33,51.76L370.41,47.75L366.59,47.13L347.37,44.92L343.5,44.67L324.16,44.28L320.29,44.39L301,45.84L297.16,46.31L278.09,49.57L274.31,50.4L255.64,55.44L251.95,56.63L233.83,63.41L230.28,64.94L212.88,73.4L209.49,75.25L192.96,85.32L189.76,87.49L174.26,99.07L171.27,101.53L156.94,114.52L154.2,117.25L141.15,131.53L138.68,134.51L127.04,149.96L124.86,153.16L114.73,169.64L112.86,173.03L104.33,190.39L102.79,193.94L95.93,212.03L94.73,215.71L89.62,234.37L88.77,238.15L85.44,257.2L84.95,261.04L83.43,280.33L83.31,284.2L83.61,303.54L83.85,307.4L85.98,326.63L86.59,330.45L90.52,349.39L91.49,353.14L97.19,371.63L98.5,375.27L105.92,393.13L107.58,396.63L116.65,413.72L118.62,417.05L129.27,433.2L131.55,436.33L143.67,451.41L146.23,454.3L159.72,468.17L162.55,470.81L177.29,483.35L180.35,485.71L196.2,496.8L199.48,498.86L216.31,508.4L219.76,510.15L237.41,518.06L241.02,519.47L259.34,525.68L263.06,526.75L281.88,531.2L285.69,531.92L304.85,534.57L308.71,534.92L328.03,535.76L331.9,535.75L351.22,534.76L355.07,534.38L374.21,531.57L378.01,530.83L396.8,526.22L400.51,525.13L418.79,518.77L422.38,517.33L439.97,509.28L443.41,507.51L460.16,497.84L463.42,495.74L479.19,484.53L482.23,482.15L496.87,469.5L499.67,466.83L513.05,452.86L515.6,449.94L527.6,434.77L529.85,431.62L540.37,415.39L542.32,412.04L551.26,394.89L552.88,391.37L560.16,373.45L561.45,369.8L567,351.27L567.94,347.51L571.72,328.54L572.3,324.71L574.28,305.47L574.49,301.61L574.76,290" style="vector-effect: non-scaling-stroke; fill: none; stroke: rgb(99, 110, 250); stroke-opacity: 1; stroke-width: 2px; opacity: 1;"></path></g><g class="points"></g><g class="text"></g></g><g class="trace scatter traceb35b6b" style="stroke-miterlimit: 2; opacity: 1;"><g class="fills"></g><g class="errorbars"></g><g class="lines"><path class="js-line" d="M574.76,290L559.23,282.78L555.81,281.35L533.26,272.83L529.18,271.43L498.22,261.92L493.49,260.61L458.41,251.81L453.15,250.61L414.95,242.77L409.32,241.73L369.07,235.06L363.22,234.2L316.16,228.25L310.28,227.63L269.46,224.04L263.72,223.64L224.44,221.69L218.99,221.53L182.37,221.26L177.37,221.35L144.43,222.78L140.03,223.1L115.47,225.66L111.69,226.19L91.12,229.93L88.05,230.65L74.32,234.63L71.91,235.5L61.56,240.2L59.85,241.21L54.17,245.46L53.06,246.57L49.81,251.21L49.31,252.41L48.53,257.38L48.64,258.66L50.34,263.92L51.07,265.26L55.23,270.74L56.57,272.13L63.13,277.77L65.07,279.2L76.48,286.39L79.1,287.83L93.83,295.06L97.1,296.5L118.78,305.06L122.73,306.47L148.26,314.74L152.81,316.08L186.7,325.13L191.81,326.37L229.15,334.54L234.68,335.63L274.41,342.69L280.2,343.61L327.11,350.07L333,350.76L374.06,354.84L379.87,355.31L425.31,358.02L430.82,358.22L468.03,358.81L473.11,358.77L506.83,357.65L511.34,357.37L536.7,355.08L540.61,354.59L562.08,351.1L565.31,350.42L582.43,345.8L584.9,344.94L595.53,340.29L597.31,339.29L603.22,335.09L604.4,333.99L607.89,329.39L608.46,328.19L609.48,323.25L609.43,321.98L607.98,316.75L607.31,315.41L603.4,309.95L602.12,308.57L595.79,302.94L593.91,301.51L582.79,294.34L580.22,292.89L574.76,290" style="vector-effect: non-scaling-stroke; fill: none; stroke: rgb(239, 85, 59); stroke-opacity: 1; stroke-dasharray: 9px, 9px; stroke-width: 1px; opacity: 1;"></path></g><g class="points"></g><g class="text"></g></g><g class="trace scatter trace1ccd95" style="stroke-miterlimit: 2; opacity: 1;"><g class="fills"></g><g class="errorbars"></g><g class="lines"><path class="js-line" d="M329,290L574.76,290" style="vector-effect: non-scaling-stroke; fill: none; stroke: rgb(0, 204, 150); stroke-opacity: 1; stroke-width: 2px; opacity: 1;"></path></g><g class="points"></g><g class="text"><g class="textpoint"></g><g class="textpoint" transform="translate(0,-3)"><text x="574.76" y="290" data-unformatted="X" data-math="N" text-anchor="middle" style="font-family: &quot;Open Sans&quot;, verdana, arial, sans-serif; font-size: 12px; fill: rgb(42, 63, 95); fill-opacity: 1; font-weight: normal; font-style: normal; font-variant: normal; white-space: pre;">X</text></g></g></g><g class="trace scatter traced30c4e" style="stroke-miterlimit: 2; opacity: 1;"><g class="fills"></g><g class="errorbars"></g><g class="lines"><path class="js-line" d="M329,290L193.83,221.19" style="vector-effect: non-scaling-stroke; fill: none; stroke: rgb(171, 99, 250); stroke-opacity: 1; stroke-width: 2px; opacity: 1;"></path></g><g class="points"></g><g class="text"><g class="textpoint"></g><g class="textpoint" transform="translate(0,-3)"><text x="193.83" y="221.19" data-unformatted="Y" data-math="N" text-anchor="middle" style="font-family: &quot;Open Sans&quot;, verdana, arial, sans-serif; font-size: 12px; fill: rgb(42, 63, 95); fill-opacity: 1; font-weight: normal; font-style: normal; font-variant: normal; white-space: pre;">Y</text></g></g></g><g class="trace scatter traceef73a7" style="stroke-miterlimit: 2; opacity: 1;"><g class="fills"></g><g class="errorbars"></g><g class="lines"><path class="js-line" d="M329,290L329,44.24" style="vector-effect: non-scaling-stroke; fill: none; stroke: rgb(255, 161, 90); stroke-opacity: 1; stroke-width: 2px; opacity: 1;"></path></g><g class="points"></g><g class="text"><g class="textpoint"></g><g class="textpoint" transform="translate(0,-3)"><text x="329" y="44.24" data-unformatted="Z" data-math="N" text-anchor="middle" style="font-family: &quot;Open Sans&quot;, verdana, arial, sans-serif; font-size: 12px; fill: rgb(42, 63, 95); fill-opacity: 1; font-weight: normal; font-style: normal; font-variant: normal; white-space: pre;">Z</text></g></g></g><g class="trace scatter trace4730ff" style="stroke-miterlimit: 2; opacity: 1;"><g class="fills"></g><g class="errorbars"></g><g class="lines"><path class="js-line" d="M329,290L549.12,160.57" style="vector-effect: non-scaling-stroke; fill: none; stroke: rgb(25, 211, 243); stroke-opacity: 1; stroke-width: 5px; opacity: 1;"></path></g><g class="points"><path class="point" transform="translate(329,290)" d="M4,0A4,4 0 1,1 0,-4A4,4 0 0,1 4,0Z" style="opacity: 1; stroke-width: 0px; fill: rgb(25, 211, 243); fill-opacity: 1;"></path><path class="point" transform="translate(549.12,160.57)" d="M4,0A4,4 0 1,1 0,-4A4,4 0 0,1 4,0Z" style="opacity: 1; stroke-width: 0px; fill: rgb(25, 211, 243); fill-opacity: 1;"></path></g><g class="text"></g></g><g class="trace scatter trace3ea2ea" style="stroke-miterlimit: 2; opacity: 1;"><g class="fills"></g><g class="errorbars"></g><g class="lines"><path class="js-line" d="M329,290L428.05,231.76" style="vector-effect: non-scaling-stroke; fill: none; stroke: rgb(255, 102, 146); stroke-opacity: 1; stroke-width: 5px; opacity: 1;"></path></g><g class="points"><path class="point" transform="translate(329,290)" d="M4,0A4,4 0 1,1 0,-4A4,4 0 0,1 4,0Z" style="opacity: 1; stroke-width: 0px; fill: rgb(255, 102, 146); fill-opacity: 1;"></path><path class="point" transform="translate(428.05,231.76)" d="M4,0A4,4 0 1,1 0,-4A4,4 0 0,1 4,0Z" style="opacity: 1; stroke-width: 0px; fill: rgb(255, 102, 146); fill-opacity: 1;"></path></g><g class="text"></g></g><g class="trace scatter trace03da72" style="stroke-miterlimit: 2; opacity: 1;"><g class="fills"></g><g class="errorbars"></g><g class="lines"></g><g class="points"><path class="point" transform="translate(329,290)" d="M5,0A5,5 0 1,1 0,-5A5,5 0 0,1 5,0Z" style="opacity: 1; stroke-width: 0px; fill: rgb(182, 232, 128); fill-opacity: 1;"></path></g><g class="text"><g class="textpoint" transform="translate(0,16.25)"><text x="329" y="290" data-unformatted="I/2" data-math="N" text-anchor="middle" style="font-family: &quot;Open Sans&quot;, verdana, arial, sans-serif; font-size: 12px; fill: rgb(42, 63, 95); fill-opacity: 1; font-weight: normal; font-style: normal; font-variant: normal; white-space: pre;">I/2</text></g></g></g></g></g></g><g class="zerolinelayer-above"></g><path class="xlines-above crisp" d="M0,0" style="fill: none;"></path><path class="ylines-above crisp" d="M0,0" style="fill: none;"></path><g class="overlines-above"></g><g class="xaxislayer-above"></g><g class="yaxislayer-above"></g><g class="overaxes-above"></g></g></g><g class="polarlayer"></g><g class="smithlayer"></g><g class="ternarylayer"></g><g class="geolayer"></g><g class="funnelarealayer"></g><g class="pielayer"></g><g class="iciclelayer"></g><g class="treemaplayer"></g><g class="sunburstlayer"></g><g class="glimages"></g><defs id="topdefs-6fe27c"><g class="clips"></g><clipPath id="legend6fe27c"><rect width="177" height="86" x="0" y="0"></rect></clipPath></defs><g class="indicatorlayer"></g><g class="layer-above"><g class="imagelayer"></g><g class="shapelayer"></g></g><g class="selectionlayer"></g><g class="infolayer"><g class="legend" pointer-events="all" transform="translate(711.16,80)"><rect class="bg" shape-rendering="crispEdges" style="stroke: rgb(68, 68, 68); stroke-opacity: 1; fill: rgb(255, 255, 255); fill-opacity: 1; stroke-width: 0px;" width="177" height="86" x="0" y="0"></rect><g class="scrollbox" transform="" clip-path="url(#legend6fe27c)"><g class="groups"><g class="traces" transform="translate(0,14.5)" style="opacity: 1;"><text class="legendtext" text-anchor="start" x="40" y="4.680000000000001" data-unformatted="Bloch sphere boundary" data-math="N" style="font-family: &quot;Open Sans&quot;, verdana, arial, sans-serif; font-size: 12px; fill: rgb(42, 63, 95); fill-opacity: 1; font-weight: normal; font-style: normal; font-variant: normal; white-space: pre;">Bloch sphere boundary</text><g class="layers" style="opacity: 1;"><g class="legendfill"></g><g class="legendlines"><path class="js-line" d="M5,0h30" style="fill: none; stroke: rgb(99, 110, 250); stroke-opacity: 1; stroke-width: 2px;"></path></g><g class="legendsymbols"><g class="legendpoints"></g></g></g><rect class="legendtoggle" pointer-events="all" x="0" y="-9.5" width="171.1953125" height="19" style="cursor: pointer; fill: rgb(0, 0, 0); fill-opacity: 0;"></rect></g><g class="traces" transform="translate(0,33.5)" style="opacity: 1;"><text class="legendtext" text-anchor="start" x="40" y="4.680000000000001" data-unformatted="pure state ‖r‖=1" data-math="N" style="font-family: &quot;Open Sans&quot;, verdana, arial, sans-serif; font-size: 12px; fill: rgb(42, 63, 95); fill-opacity: 1; font-weight: normal; font-style: normal; font-variant: normal; white-space: pre;">pure state ‖r‖=1</text><g class="layers" style="opacity: 1;"><g class="legendfill"></g><g class="legendlines"><path class="js-line" d="M5,0h30" style="fill: none; stroke: rgb(25, 211, 243); stroke-opacity: 1; stroke-width: 5px;"></path></g><g class="legendsymbols"><g class="legendpoints"><path class="scatterpts" transform="translate(20,0)" d="M4,0A4,4 0 1,1 0,-4A4,4 0 0,1 4,0Z" style="opacity: 1; stroke-width: 0px; fill: rgb(25, 211, 243); fill-opacity: 1;"></path></g></g></g><rect class="legendtoggle" pointer-events="all" x="0" y="-9.5" width="171.1953125" height="19" style="cursor: pointer; fill: rgb(0, 0, 0); fill-opacity: 0;"></rect></g><g class="traces" transform="translate(0,52.5)" style="opacity: 1;"><text class="legendtext" text-anchor="start" x="40" y="4.680000000000001" data-unformatted="mixed state ‖r‖&lt;1" data-math="N" style="font-family: &quot;Open Sans&quot;, verdana, arial, sans-serif; font-size: 12px; fill: rgb(42, 63, 95); fill-opacity: 1; font-weight: normal; font-style: normal; font-variant: normal; white-space: pre;">mixed state ‖r‖&lt;1</text><g class="layers" style="opacity: 1;"><g class="legendfill"></g><g class="legendlines"><path class="js-line" d="M5,0h30" style="fill: none; stroke: rgb(255, 102, 146); stroke-opacity: 1; stroke-width: 5px;"></path></g><g class="legendsymbols"><g class="legendpoints"><path class="scatterpts" transform="translate(20,0)" d="M4,0A4,4 0 1,1 0,-4A4,4 0 0,1 4,0Z" style="opacity: 1; stroke-width: 0px; fill: rgb(255, 102, 146); fill-opacity: 1;"></path></g></g></g><rect class="legendtoggle" pointer-events="all" x="0" y="-9.5" width="171.1953125" height="19" style="cursor: pointer; fill: rgb(0, 0, 0); fill-opacity: 0;"></rect></g><g class="traces" transform="translate(0,71.5)" style="opacity: 1;"><text class="legendtext" text-anchor="start" x="40" y="4.680000000000001" data-unformatted="maximally mixed" data-math="N" style="font-family: &quot;Open Sans&quot;, verdana, arial, sans-serif; font-size: 12px; fill: rgb(42, 63, 95); fill-opacity: 1; font-weight: normal; font-style: normal; font-variant: normal; white-space: pre;">maximally mixed</text><g class="layers" style="opacity: 1;"><g class="legendfill"></g><g class="legendlines"></g><g class="legendsymbols"><g class="legendpoints"><path class="scatterpts" transform="translate(20,0)" d="M5,0A5,5 0 1,1 0,-5A5,5 0 0,1 5,0Z" style="opacity: 1; stroke-width: 0px; fill: rgb(182, 232, 128); fill-opacity: 1;"></path></g></g></g><rect class="legendtoggle" pointer-events="all" x="0" y="-9.5" width="171.1953125" height="19" style="cursor: pointer; fill: rgb(0, 0, 0); fill-opacity: 0;"></rect></g></g></g><rect class="scrollbar" rx="20" ry="3" width="0" height="0" style="fill: rgb(128, 139, 164); fill-opacity: 1;" x="0" y="0"></rect></g><g class="g-gtitle"><text class="gtitle" x="45" y="40" text-anchor="start" dy="0em" data-unformatted="Bloch ball: pure and mixed one-qubit states" data-math="N" style="opacity: 1; font-family: &quot;Open Sans&quot;, verdana, arial, sans-serif; font-size: 17px; fill: rgb(42, 63, 95); fill-opacity: 1; font-weight: normal; font-style: normal; font-variant: normal; white-space: pre;">Bloch ball: pure and mixed one-qubit states</text></g></g><g class="menulayer"></g><g class="zoomlayer"></g><g class="hoverlayer"></g></svg>